<?xml version="1.0" encoding="UTF-8" standalone="no"?>
<svg width="20px" height="27px" viewBox="0 0 20 27" version="1.1" xmlns="http://www.w3.org/2000/svg" xmlns:xlink="http://www.w3.org/1999/xlink">
    <!-- Generator: Sketch 41 (35326) - http://www.bohemiancoding.com/sketch -->
    <title>Shape Copy 14</title>
    <desc>Created with Sketch.</desc>
    <defs></defs>
    <g id="Teleprovider" stroke="none" stroke-width="1" fill="none" fill-rule="evenodd">
        <g id="Hackaday" transform="translate(-331.000000, -327.000000)" fill="#005FD5">
            <path d="M341,343.921053 C343.326316,343.921053 345.105263,342.142105 345.105263,339.815789 L345.105263,331.605263 C345.105263,329.278947 343.326316,327.5 341,327.5 C338.673684,327.5 336.894737,329.278947 336.894737,331.605263 L336.894737,339.815789 C336.894737,342.142105 338.673684,343.921053 341,343.921053 L341,343.921053 Z M348.252632,339.815789 C348.252632,343.921053 344.831579,346.794737 341,346.794737 C337.168421,346.794737 333.747368,343.921053 333.747368,339.815789 L331.421053,339.815789 C331.421053,344.468421 335.115789,348.3 339.631579,348.984211 L339.631579,353.5 L342.368421,353.5 L342.368421,348.984211 C346.884211,348.3 350.578947,344.468421 350.578947,339.815789 L348.252632,339.815789 L348.252632,339.815789 Z" id="Shape-Copy-14"></path>
        </g>
    </g>
</svg>